<svg xmlns="http://www.w3.org/2000/svg" height="24" viewBox="0 -960 960 960" width="24"><path d="M245.462-268.807q51.808-37.346 109.654-58.462Q412.962-348.384 480-348.384q67.038 0 124.884 21.115 57.846 21.116 109.846 58.462 38.424-42.115 59.828-95.52 21.404-53.405 21.404-115.746 0-131.619-92.135-223.754Q611.692-795.962 480-795.962t-223.827 92.135q-92.135 92.135-92.135 223.754 0 62.341 21.404 115.746 21.404 53.405 60.02 95.52Zm234.649-182.809q-54.265 0-91.38-37.005-37.115-37.004-37.115-91.268 0-54.265 37.005-91.38 37.004-37.115 91.268-37.115 54.265 0 91.38 37.005 37.115 37.004 37.115 91.268 0 54.265-37.005 91.38-37.004 37.115-91.268 37.115ZM480-108.078q-77.252 0-145.238-29.225-67.985-29.224-118.123-79.461-50.138-50.237-79.349-118.151Q108.078-402.829 108.078-480q0-77.445 29.225-145.334 29.224-67.889 79.461-118.027 50.237-50.138 118.151-79.349Q402.829-851.922 480-851.922q77.445 0 145.334 29.225 67.889 29.224 118.027 79.461 50.138 50.237 79.349 118.055Q851.922-557.364 851.922-480q0 77.252-29.225 145.238-29.224 67.985-79.461 118.123-50.237 50.138-118.055 79.349Q557.364-108.078 480-108.078Z"/></svg>